<?xml version="1.0" standalone="no"?><!DOCTYPE svg PUBLIC "-//W3C//DTD SVG 1.1//EN" "http://www.w3.org/Graphics/SVG/1.1/DTD/svg11.dtd"><svg t="1749461773423" class="icon" viewBox="0 0 1024 1024" version="1.1" xmlns="http://www.w3.org/2000/svg" p-id="11450" xmlns:xlink="http://www.w3.org/1999/xlink" width="200" height="200"><path d="M435.237547 511.658667a191.189333 191.189333 0 1 0 191.189333-191.189334 191.189333 191.189333 0 0 0-191.189333 191.189334zM600.912213 154.88a25.6 25.6 0 0 1 51.2 0v78.933333a25.6 25.6 0 0 1-51.2 0z m224.341334 53.546667a25.6 25.6 0 0 1 40.789333 30.592l-47.146667 63.744a25.6 25.6 0 1 1-40.789333-30.592z m149.333333 168.277333a25.6 25.6 0 0 1 15.317333 48.426667l-75.221333 24.234666a25.6 25.6 0 1 1-15.317333-48.426666z m15.317333 220.501333a25.6 25.6 0 0 1-15.317333 48.426667l-75.221333-24.234667a25.6 25.6 0 1 1 15.317333-48.426666z m-122.368 188.672a25.6 25.6 0 0 1-40.789333 30.592l-47.146667-63.744a25.6 25.6 0 0 1 40.789334-30.592zM385.488213 237.610667a25.6 25.6 0 0 1 40.789334-30.592l47.146666 63.744a25.6 25.6 0 1 1-40.789333 30.592z" fill="#F38733" p-id="11451"></path><path d="M408.44288 722.005333a174.634667 174.634667 0 1 0 174.634667-174.634666 174.634667 174.634667 0 0 0-174.634667 174.634666z" fill="#ECEBEB" p-id="11452"></path><path d="M190.45888 548.650667v-7.637334a180.992 180.992 0 1 1 335.232 96.896 166.997333 166.997333 0 0 1-243.456 221.866667 174.634667 174.634667 0 1 1-107.221333-312.277333z" fill="#D9D8D8" p-id="11453"></path></svg>